<svg viewBox="0 0 19 14" id="email" xmlns="http://www.w3.org/2000/svg"><path class="arst0" d="M17.2.3H1.8C1.3.3.9.5.5.9v.5c0 .1.1.2.2.3l6 5.2-3.2 3c-.1.1-.2.2-.2.4 0 .3.2.5.5.5.1 0 .3-.1.4-.2l3.3-3 .8.7c.3.3.7.4 1.2.4.4 0 .9-.2 1.2-.4l.8-.7 3.2 3c.1.1.2.1.4.1.1 0 .3-.1.4-.2.2-.2.2-.6 0-.8l-3.1-2.9 3.5-2.9c.1.1.1.1.2 0s.1-.3.1-.4-.1-.2-.2-.3c-.1-.1-.2-.1-.4-.1-.1 0-.3.1-.3.2L10 7.5c-.3.2-.7.2-1 0L2 1.4h15.2c.3 0 .6.3.6.6v10c0 .3-.3.6-.6.6H1.8c-.3 0-.6-.3-.6-.6V6.6h-.1C1 6.4.8 6.3.7 6.3s-.4.1-.5.3H.1V12c0 .9.8 1.7 1.7 1.7h15.3c.9 0 1.7-.8 1.7-1.7V2c.1-1-.7-1.7-1.6-1.7z"/></svg>