<svg viewBox="0 0 160 32" id="logo" xmlns="http://www.w3.org/2000/svg"><path fill="#f7adb5" d="M24.943 12.444c-.806.416-1.657.745-2.555.99-.897.244-1.84.366-2.83.366-1.452 0-2.725-.186-3.817-.559-1.094-.372-2.006-.873-2.738-1.502-.733-.628-1.286-1.349-1.658-2.16a6.012 6.012 0 01-.559-2.537c0-.915.15-1.73.45-2.445a5.192 5.192 0 011.226-1.804 5.32 5.32 0 011.813-1.117 6.276 6.276 0 012.207-.384 9.03 9.03 0 013.04.54 7.586 7.586 0 012.738 1.712c.812.782 1.471 1.789 1.978 3.022.506 1.233.76 2.716.76 4.45 0 .476-.018.952-.055 1.428zm1.428-1.501c0-1.294-.134-2.463-.403-3.507-.268-1.044-.638-1.975-1.108-2.793a8.952 8.952 0 00-1.648-2.106A9.393 9.393 0 0018.908.23a10.37 10.37 0 00-2.353-.274c-.952 0-1.862.162-2.728.485a6.801 6.801 0 00-2.29 1.41 6.744 6.744 0 00-1.566 2.234c-.384.873-.576 1.86-.576 2.958 0 1.355.287 2.54.86 3.553a7.861 7.861 0 002.272 2.536c.94.678 2.02 1.185 3.24 1.52a14.16 14.16 0 003.774.504c.94 0 1.84-.1 2.7-.302.861-.202 1.688-.48 2.482-.833-.269 2.124-.778 3.955-1.53 5.494-.75 1.538-1.674 2.805-2.773 3.8a10.677 10.677 0 01-3.718 2.206 13.21 13.21 0 01-4.34.714 12.618 12.618 0 01-2.134-.22 13.963 13.963 0 01-1.786-.457 11.434 11.434 0 01-1.95-.842c-.653-.354-1.288-.8-1.905-1.337a8.54 8.54 0 01-1.639-1.96c-.476-.77-.857-1.666-1.144-2.692-.287-1.025-.43-2.21-.43-3.553 0-1.465.167-2.771.503-3.919.336-1.148.757-2.154 1.264-3.022.506-.866 1.062-1.602 1.666-2.206A15.214 15.214 0 016.51 4.533c.531-.39.99-.68 1.374-.87l.687-.338a.768.768 0 00.32-.266.656.656 0 00.12-.375.611.611 0 00-.22-.495.732.732 0 00-.807-.11A15.143 15.143 0 004.56 4.396a13.568 13.568 0 00-2.5 3.022 13.87 13.87 0 00-1.538 3.626A15.926 15.926 0 000 15.173c0 1.465.168 2.787.504 3.965.335 1.178.796 2.228 1.383 3.15a10.256 10.256 0 002.069 2.38 11.892 11.892 0 002.564 1.649c.915.434 1.87.753 2.866.962.995.207 1.98.311 2.957.311 1.795 0 3.49-.296 5.082-.889a12.15 12.15 0 004.25-2.683c1.238-1.196 2.258-2.689 3.057-4.477.8-1.789 1.303-3.885 1.511-6.29.379-.22.745-.456 1.099-.706.354-.25.68-.497.98-.742a8.59 8.59 0 00.787-.723c.226-.238.412-.454.559-.65a.621.621 0 00.073-.311.746.746 0 00-.192-.486.627.627 0 00-.504-.229.367.367 0 00-.293.128 4.16 4.16 0 01-.412.468 13.93 13.93 0 01-1.282 1.126 5.513 5.513 0 01-.687.457zM30.108 18.128c0-.952.146-1.306.256-1.38a.646.646 0 01.366-.11c.195 0 .354.064.476.193a.815.815 0 01.22.466c.012.171.057.44.138.806.078.366.188.785.33 1.255.139.47.304.974.493 1.51.19.538.412 1.07.67 1.594a63.392 63.392 0 014.852-6.83c.122-.16.299-.24.53-.24.196 0 .361.068.496.202a.652.652 0 01.201.477.635.635 0 01-.165.44 65.253 65.253 0 00-5.146 7.325 7.09 7.09 0 001.41 1.574 2.69 2.69 0 001.74.623 2.97 2.97 0 001.63-.494c.512-.33.98-.736 1.4-1.218a9.165 9.165 0 001.1-1.557c.311-.556.552-1.06.723-1.51.122-.306.336-.458.64-.458a.65.65 0 01.505.21c.128.14.192.302.192.485 0 .062-.012.14-.037.239l-.165.366c-.122.268-.305.613-.549 1.035-.244.42-.543.882-.897 1.382-.354.5-.76.968-1.218 1.401a6.528 6.528 0 01-1.53 1.08 3.934 3.934 0 01-1.813.43 3.826 3.826 0 01-2.17-.64 7.38 7.38 0 01-1.73-1.63c-.208.366-.41.733-.605 1.099l-.586 1.099c-.134.256-.341.384-.622.384a.636.636 0 01-.504-.22.711.711 0 01-.192-.476c0-.097.03-.207.092-.33.244-.476.494-.951.75-1.428.257-.476.525-.946.806-1.41-.415-.72-.77-1.456-1.062-2.207a18.881 18.881 0 01-.696-2.115M45.088 26.198c0 .88-.132 1.73-.394 2.555-.263.824-.742 1.565-1.437 2.225a.762.762 0 01-.495.201.708.708 0 01-.476-.192.616.616 0 01-.22-.485c0-.196.067-.36.201-.495a5.058 5.058 0 001.072-1.639c.25-.617.375-1.322.375-2.115 0-.195.058-.363.174-.504a.595.595 0 01.485-.21.74.74 0 01.485.174.65.65 0 01.23.485z"/><path fill="#fc5e2f" d="M51.441 12.247c0-.635.286-.921 1.079-.921h2.92c.793 0 1.078.286 1.078.92v4.76h3.808v-4.76c0-.634.286-.92 1.08-.92h2.919c.793 0 1.079.286 1.079.92v13.71c0 .634-.222.92-1.08.92h-2.919c-.793 0-1.079-.286-1.079-.92V21.1h-3.808v4.855c0 .635-.285.92-1.079.92h-2.92c-.856 0-1.078-.285-1.078-.92zM71.942 21.957c0-1.143.54-1.428 2.063-1.428h.349c.602 0 1.11.031 1.523.094v.89c0 .888-.096 1.269-.445 1.554-.349.318-.856.476-1.49.476h-.223c-1.174 0-1.777-.349-1.777-1.46zm-4.76.317c0 3.174 1.936 4.887 5.14 4.887h.477c1.935 0 3.522-.603 4.156-1.586h.064l.19.57c.223.604.445.73 1.175.73h1.491c.794 0 1.08-.253 1.08-.888v-9.425c0-1.809-.414-3.141-1.207-3.966-1.015-1.048-2.76-1.556-5.204-1.556-2 0-3.808.223-5.426.699-.603.158-.762.412-.762.825 0 .126.031.349.064.634l.253 1.682c.127.603.318.762 1.08.603 1.427-.349 2.665-.54 3.68-.54.92 0 1.555.128 1.904.35.35.222.54.698.54 1.396v.666c-.73-.095-1.46-.126-2.222-.126h-.222c-4.347 0-6.251 1.269-6.251 4.696zM87.901 12.247c.064-.604.54-.921 1.396-.921h2.825c.73 0 1.205.317 1.396.92l2.19 7.585h.126l2.222-7.584c.159-.604.635-.921 1.396-.921h2.92c.856 0 1.332.317 1.396.92.38 4.665.57 9.235.603 13.71 0 .634-.286.92-1.079.92h-2.348c-.793 0-1.11-.286-1.08-.92.064-1.873.032-4.094-.063-6.728h-.127L98.056 24.4c-.222.635-.635.89-1.428.89h-1.714c-.762 0-1.237-.319-1.428-.922l-1.554-5.14h-.128a95.538 95.538 0 00-.031 6.727c.031.635-.286.92-1.08.92h-2.316c-.793 0-1.079-.285-1.079-.92 0-4.062.19-8.632.603-13.708zM110.624 21.957c0-1.143.539-1.428 2.062-1.428h.35c.602 0 1.11.031 1.522.094v.89c0 .888-.095 1.269-.444 1.554-.349.318-.857.476-1.491.476h-.222c-1.174 0-1.777-.349-1.777-1.46zm-4.76.317c0 3.174 1.935 4.887 5.14 4.887h.476c1.936 0 3.523-.603 4.158-1.586h.063l.19.57c.222.604.444.73 1.174.73h1.492c.793 0 1.079-.253 1.079-.888v-9.425c0-1.809-.413-3.141-1.206-3.966-1.016-1.048-2.76-1.556-5.204-1.556-2 0-3.808.223-5.427.699-.603.158-.762.412-.762.825 0 .126.032.349.064.634l.254 1.682c.127.603.317.762 1.079.603 1.428-.349 2.665-.54 3.681-.54.92 0 1.555.128 1.904.35.35.222.54.698.54 1.396v.666c-.73-.095-1.46-.126-2.222-.126h-.222c-4.347 0-6.252 1.269-6.252 4.696zM122.176 12.247c.063-.604.54-.921 1.396-.921h2.824c.73 0 1.206.317 1.396.92l2.19 7.585h.127l2.222-7.584c.158-.604.634-.921 1.395-.921h2.92c.857 0 1.333.317 1.396.92.381 4.665.572 9.235.603 13.71 0 .634-.286.92-1.078.92h-2.349c-.793 0-1.11-.286-1.079-.92.064-1.873.032-4.094-.063-6.728h-.127L132.33 24.4c-.223.635-.635.89-1.429.89h-1.713c-.762 0-1.238-.319-1.428-.922l-1.555-5.14h-.127a95.502 95.502 0 00-.032 6.727c.032.635-.285.92-1.079.92h-2.316c-.794 0-1.08-.285-1.08-.92 0-4.062.191-8.632.604-13.708zM144.898 21.957c0-1.143.54-1.428 2.063-1.428h.349c.602 0 1.11.031 1.523.094v.89c0 .888-.095 1.269-.444 1.554-.35.318-.857.476-1.492.476h-.222c-1.174 0-1.777-.349-1.777-1.46zm-4.76.317c0 3.174 1.936 4.887 5.14 4.887h.477c1.935 0 3.522-.603 4.157-1.586h.063l.19.57c.223.604.445.73 1.175.73h1.491c.794 0 1.08-.253 1.08-.888v-9.425c0-1.809-.414-3.141-1.206-3.966-1.016-1.048-2.761-1.556-5.205-1.556-1.999 0-3.808.223-5.426.699-.603.158-.762.412-.762.825 0 .126.032.349.064.634l.253 1.682c.127.603.318.762 1.08.603 1.427-.349 2.665-.54 3.68-.54.92 0 1.555.128 1.904.35.35.222.54.698.54 1.396v.666c-.73-.095-1.46-.126-2.221-.126h-.223c-4.347 0-6.251 1.269-6.251 4.696zM155.58 10.984c-.025-.813.127-.966 1.067-.966h2.285c.939 0 1.091.153 1.065.966l-.456 9.976c0 .686-.254.813-1.067.813h-1.42c-.788 0-.966-.152-.991-.762zm-.05 13.937c0-1.346.71-2.031 2.158-2.031h.076c1.447 0 2.158.685 2.158 2.03v.204c0 1.396-.864 1.98-2.158 1.98h-.076c-1.295 0-2.158-.584-2.158-1.98z"/></svg>