<svg viewBox="0 0 15 15" id="password" xmlns="http://www.w3.org/2000/svg"><path class="bhst0" d="M14.8 4.9c-.4-1.1-1-2.1-1.8-2.9-.8-.8-1.8-1.4-2.9-1.8-.8-.4-1.8-.2-2.5.5L5.3 3c-.7.7-.9 1.7-.5 2.6.2.2.3.5.4.8L.1 11.5s-.1.2-.1.3v2.6c0 .3.3.6.6.6h2.6c.3 0 .6-.3.6-.6v-1.1h1.1c.3 0 .6-.3.6-.6v-1.1h1.1c.3 0 .6-.3.6-.6s-.3-.6-.6-.6H4.8c-.3 0-.6.3-.6.6v1.1h-1c-.3 0-.6.3-.6.6v1.1H1.2V12l5.2-5.2c.2-.2.2-.5.1-.7-.3-.3-.4-.6-.6-1-.2-.4-.1-1 .2-1.3l2.3-2.3c.3-.3.8-.4 1.3-.3.9.3 1.8.9 2.5 1.5.7.7 1.2 1.6 1.6 2.5.2.4.1.9-.3 1.3l-2.3 2.3c-.3.3-.8.4-1.3.3-.4-.1-.7-.3-1.1-.5-.3-.2-.6-.1-.8.2-.2.2-.1.6.2.8l1.2.6c.9.4 1.9.2 2.6-.5l2.3-2.3c.7-.7.9-1.7.5-2.5z"/><circle class="bhst0" cx="10.5" cy="4.5" r="1.5"/></svg>