<svg viewBox="0 0 15.9 10" id="views-small" xmlns="http://www.w3.org/2000/svg"><path class="bwst0" d="M15.7 4.665c-.1-.2-3.5-4.7-7.7-4.7s-7.6 4.5-7.7 4.7c-.1.2-.1.4 0 .6.7.9 1.5 1.7 2.4 2.5.3-.2.6-.3 1-.5-.8-.7-1.6-1.4-2.3-2.2.8-1 3.5-4 6.7-4s5.9 3 6.7 4c-.8 1-3.5 4-6.7 4-1 0-2-.3-2.9-.8l-.7.8c1.1.6 2.3 1 3.6 1 4.3 0 7.6-4.5 7.7-4.7 0-.2 0-.5-.1-.7z"/><path class="bwst0" d="M7.939 1.896c-1.7 0-3.1 1.4-3.1 3.1s1.4 3.1 3.1 3.1 3.1-1.4 3.1-3.1c0-1.7-1.4-3.1-3.1-3.1zm0 5.2c-1.1 0-2.1-.9-2.1-2.1s1-2.1 2.1-2.1 2.1 1 2.1 2.1-.9 2.1-2.1 2.1z"/></svg>